<svg width="767" height="58" viewBox="0 0 767 58" fill="none" xmlns="http://www.w3.org/2000/svg">
<g clip-path="url(#clip0_4_132)">
<path d="M29.0344 46.7691V58C47.9996 58 62.7582 39.6723 56.5512 19.7598C53.7927 11.0782 46.8963 4.11924 38.2065 1.43207C18.3447 -4.76902 0 10.0447 0 28.9926H11.2411C11.2411 17.1415 23.0341 7.90879 35.5861 12.4563C40.2064 14.1099 43.9307 17.8306 45.5858 22.4469C50.1376 34.987 40.965 46.7691 29.0344 46.7691Z" fill="#081B4B"/>
<path d="M17.8594 46.8385H29.0319V35.6765H17.8594V46.8385Z" fill="#081B4B"/>
<path d="M17.8584 55.4545H9.23767V46.8418H17.8584V55.4545Z" fill="#081B4B"/>
<path d="M2.00342 46.8425H9.17558V39.6768H2.00342V46.8425Z" fill="#081B4B"/>
<path fill-rule="evenodd" clip-rule="evenodd" d="M102.261 16.8104C98.9841 14.5705 94.8883 13.4167 90.1105 13.4167H79.7348V46.2675H90.1105C94.8883 46.2675 98.9841 45.0457 102.261 42.6702C104.035 41.3806 105.468 39.6159 106.424 37.376C107.38 35.1362 107.925 32.557 107.925 29.6385C107.925 26.7199 107.448 24.1407 106.424 21.9688C105.468 19.7289 104.103 17.9642 102.261 16.8104ZM85.8841 18.918H89.0923C92.7101 18.918 95.7135 19.5967 97.9657 21.022C100.492 22.5153 101.789 25.4338 101.789 29.5741C101.789 33.8501 100.492 36.8365 97.9657 38.4655C95.7816 39.8909 92.8467 40.6374 89.1607 40.6374H85.8841V18.918Z" fill="#081B4B"/>
<path d="M112.703 13.9605C113.385 13.2817 114.204 12.9424 115.229 12.9424C116.184 12.9424 117.071 13.3496 117.822 13.9605C118.505 14.6392 118.847 15.4536 118.847 16.4718C118.847 17.4899 118.505 18.3723 117.822 19.051C117.071 19.7297 116.253 20.0691 115.229 20.0691C114.204 20.0691 113.317 19.7297 112.635 19.051C111.952 18.3044 111.611 17.4899 111.611 16.4718C111.611 15.4536 112.02 14.6392 112.703 13.9605Z" fill="#081B4B"/>
<path d="M112.227 23.0527H118.098V46.1975H112.227V23.0527Z" fill="#081B4B"/>
<path fill-rule="evenodd" clip-rule="evenodd" d="M133.448 22.5784C135.563 22.5784 137.543 23.4608 139.318 25.0218V23.0535H145.052V44.0942C145.052 47.5558 143.959 50.4066 141.911 52.5106C139.864 54.6147 137.065 55.7006 133.584 55.7006C131.058 55.7006 128.805 55.0898 127.099 54.0038C125.392 52.9179 124.096 51.764 123.208 50.5423L123.072 50.4066L127.031 46.6056C129.147 49.3205 130.785 50.4066 133.516 50.4066C135.222 50.4066 136.655 49.8635 137.68 48.8455C138.635 47.8273 139.181 46.3342 139.181 44.4337V43.8906C137.543 45.1124 135.632 45.7232 133.379 45.7232C130.171 45.7232 127.441 44.6373 125.392 42.4653C123.345 40.2255 122.321 37.4427 122.321 34.1848C122.321 30.8589 123.345 28.0762 125.461 25.9042C127.508 23.6644 130.239 22.5784 133.448 22.5784ZM133.72 40.363C135.427 40.363 136.725 39.82 137.748 38.6661C138.772 37.5123 139.318 36.0191 139.251 34.1186C139.251 32.286 138.772 30.7249 137.748 29.571C136.725 28.4172 135.427 27.8743 133.72 27.8743C132.083 27.8743 130.786 28.4172 129.762 29.571C128.738 30.7249 128.26 32.2182 128.26 34.1186C128.26 36.0191 128.738 37.5123 129.762 38.6661C130.717 39.82 132.014 40.363 133.72 40.363Z" fill="#081B4B"/>
<path d="M150.041 23.0528H155.912V46.1976H150.041V23.0528Z" fill="#081B4B"/>
<path d="M150.518 13.9605C151.201 13.2817 152.02 12.9424 153.043 12.9424C154.066 12.9424 154.886 13.3496 155.637 13.9605C156.32 14.6392 156.661 15.4536 156.661 16.4718C156.661 17.4899 156.32 18.3723 155.637 19.051C154.886 19.7297 154.066 20.0691 153.043 20.0691C152.02 20.0691 151.132 19.7297 150.45 19.051C149.767 18.3044 149.425 17.4899 149.425 16.4718C149.425 15.4536 149.835 14.6392 150.518 13.9605Z" fill="#081B4B"/>
<path d="M168.741 16.8081H163.007V23.0525H159.662V28.3465H163.007V37.9167C163.007 40.9031 163.621 43.0752 164.781 44.2968C166.01 45.5186 168.126 46.1973 171.061 46.1973C172.017 46.1973 172.972 46.1973 173.928 46.1294H174.201V40.8353L172.221 40.971C170.856 40.971 169.901 40.6995 169.423 40.2244C168.945 39.7493 168.741 38.7312 168.741 37.1702V28.4144H174.201V23.1203H168.741V16.8081Z" fill="#081B4B"/>
<path d="M207.516 13.3459H201.646V46.1967H207.516V13.3459Z" fill="#081B4B"/>
<path d="M266.558 37.9178C265.533 39.0716 264.441 40.0898 263.622 40.6328C262.803 41.1757 261.779 41.3793 260.618 41.3793C258.912 41.3793 257.479 40.7685 256.387 39.4789C255.294 38.1893 254.68 36.5603 254.68 34.592C254.68 32.6237 255.226 30.9947 256.319 29.7051C257.411 28.4155 258.844 27.8047 260.55 27.8047C262.462 27.8047 264.441 28.9585 266.148 30.9947L270.039 27.3295C267.513 24.0716 264.304 22.5784 260.482 22.5784C257.274 22.5784 254.475 23.7323 252.223 26.04C249.971 28.3476 248.81 31.1983 248.81 34.6599C248.81 38.1215 249.971 41.04 252.223 43.2798C254.475 45.5875 257.274 46.7414 260.482 46.7414C264.714 46.7414 268.127 44.9088 270.448 41.5829L266.558 37.9178Z" fill="#081B4B"/>
<path fill-rule="evenodd" clip-rule="evenodd" d="M287.241 23.5327C288.607 24.2114 289.767 25.1616 290.585 26.3155C291.405 27.4694 292.02 28.6911 292.565 30.1165C292.975 31.474 293.18 32.8992 293.18 34.3925L293.112 36.4966H277.616C277.754 37.9898 278.299 39.1436 279.255 40.026C280.279 40.9762 281.576 41.4513 283.214 41.4513C284.306 41.4513 285.262 41.1798 286.15 40.7726C286.763 40.5011 287.31 40.0939 287.856 39.5509C287.894 39.507 287.933 39.4631 287.973 39.4193C288.025 39.3617 288.079 39.304 288.134 39.2466C288.264 39.111 288.399 38.9766 288.531 38.8449C288.761 38.6165 288.982 38.3965 289.153 38.1934L292.975 41.8586L292.839 41.9943C290.381 45.1165 287.173 46.6776 283.214 46.6776C279.732 46.6776 276.866 45.5237 274.749 43.3517C272.634 41.1119 271.542 38.2613 271.542 34.7318C271.542 31.3382 272.498 28.4196 274.477 26.044C276.456 23.7364 279.118 22.5146 282.395 22.5146C284.238 22.5146 285.876 22.854 287.241 23.5327ZM279.322 29.0281C278.64 29.7068 278.093 30.657 277.821 31.743V31.8109H286.831C286.762 30.7249 286.353 29.8425 285.671 29.096C284.92 28.2814 283.827 27.8742 282.394 27.8742C281.166 27.8742 280.141 28.2814 279.322 29.0281Z" fill="#081B4B"/>
<path fill-rule="evenodd" clip-rule="evenodd" d="M313.048 24.8182C311.272 23.325 308.816 22.5784 305.743 22.5784C303.764 22.5784 301.989 22.9856 300.351 23.8001C298.849 24.5467 297.348 25.8363 296.392 27.5331L296.461 27.6011L300.215 31.1983C301.785 28.7549 303.491 27.8725 305.743 27.8725C306.972 27.8725 307.997 28.2119 308.746 28.8227C309.498 29.4336 309.907 30.2481 309.907 31.3341V32.4879C308.474 32.0807 307.04 31.8092 305.607 31.8092C302.672 31.8092 300.351 32.4879 298.576 33.8454C296.802 35.2028 295.914 37.1712 295.914 39.6146C295.914 41.7865 296.665 43.5513 298.167 44.8409C299.668 46.1304 301.58 46.7414 303.833 46.7414C306.085 46.7414 308.132 45.859 310.043 44.2979V46.1984H315.777V31.3341C315.709 28.4834 314.822 26.3114 313.048 24.8182ZM302.668 37.3748C303.35 36.8997 304.237 36.6961 305.466 36.6961C306.9 36.6961 308.401 36.9676 309.903 37.5105V39.7503C308.606 40.9041 306.9 41.5151 304.852 41.5151C303.828 41.5151 303.077 41.3115 302.531 40.8364C301.985 40.429 301.711 39.8861 301.711 39.1395C301.711 38.3928 301.985 37.782 302.668 37.3748Z" fill="#081B4B"/>
<path d="M331.404 22.5074C334.34 22.5074 336.592 23.3899 338.23 25.2225C339.868 27.0551 340.687 29.5664 340.687 32.7564V46.1275H334.817V32.7564C334.817 31.1953 334.476 29.9736 333.725 29.0913C332.975 28.2088 331.951 27.8016 330.654 27.8016C329.152 27.8016 327.992 28.2767 327.173 29.2949C326.354 30.3129 325.944 31.6704 325.944 33.4352V46.1954H320.074V23.0505H325.807V24.4758C327.173 23.1863 329.083 22.5074 331.404 22.5074Z" fill="#081B4B"/>
<path fill-rule="evenodd" clip-rule="evenodd" d="M194.279 24.8182C192.504 23.325 190.047 22.5784 186.976 22.5784C184.996 22.5784 183.222 22.9856 181.583 23.8001C180.081 24.5467 178.58 25.8363 177.624 27.5331L177.693 27.6011L181.447 31.1983C183.016 28.7549 184.723 27.8725 186.976 27.8725C188.204 27.8725 189.228 28.2119 189.979 28.8227C190.73 29.4336 191.139 30.2481 191.139 31.3341V32.4879C189.705 32.0807 188.273 31.8092 186.839 31.8092C183.904 31.8092 181.583 32.4879 179.809 33.8454C178.034 35.2028 177.146 37.1712 177.146 39.6146C177.146 41.7865 177.897 43.5513 179.399 44.8409C180.9 46.1304 182.812 46.7414 185.064 46.7414C187.317 46.7414 189.365 45.859 191.276 44.2979V46.1984H197.009V31.3341C196.942 28.4834 196.054 26.3114 194.279 24.8182ZM183.899 37.3748C184.582 36.8997 185.469 36.6961 186.698 36.6961C188.132 36.6961 189.633 36.9676 191.135 37.5105V39.7503C189.838 40.9041 188.132 41.5151 186.084 41.5151C185.06 41.5151 184.309 41.3115 183.763 40.8364C183.217 40.429 182.944 39.8861 182.944 39.1395C182.944 38.3928 183.217 37.782 183.899 37.3748Z" fill="#081B4B"/>
<path fill-rule="evenodd" clip-rule="evenodd" d="M211.678 29.772C211.678 39.0707 219.324 46.6726 228.674 46.6726C238.095 46.6726 245.671 39.0707 245.671 29.772C245.671 20.4734 238.026 12.8715 228.674 12.8715C219.324 12.8715 211.678 20.4734 211.678 29.772ZM217.681 29.704C217.681 23.6633 222.596 18.7764 228.671 18.7764C234.746 18.7764 239.661 23.6633 239.661 29.704C239.661 35.7448 234.746 40.6316 228.671 40.6316C222.596 40.6316 217.681 35.7448 217.681 29.704Z" fill="#081B4B"/>
<path d="M389.843 20C390.406 20 390.861 20.4556 390.861 21.0175V28.1404H397.982C398.545 28.1404 399 28.5959 399 29.1579C399 29.7199 398.545 30.1754 397.982 30.1754H390.861V37.2982C390.861 37.8602 390.406 38.3158 389.843 38.3158C389.282 38.3158 388.826 37.8602 388.826 37.2982V30.1754H381.705C381.143 30.1754 380.687 29.7199 380.687 29.1579C380.687 28.5959 381.143 28.1404 381.705 28.1404H388.826V21.0175C388.826 20.4556 389.282 20 389.843 20Z" fill="#081B4B"/>
<path d="M569.784 20.8947C563.983 20.8947 561.303 25.1295 561.303 29.2219C561.303 33.3127 563.835 37.4043 569.784 37.4043C571.943 37.4043 574.248 36.5302 575.888 34.9938L578.414 37.4043C576.036 39.6685 572.982 40.7665 569.783 40.7665C561.45 40.7665 557.731 35.1394 557.731 29.2219C557.731 23.3036 561.598 17.4621 569.783 17.4621C572.833 17.4621 575.811 18.5594 578.193 20.8947L575.739 23.234C574.099 21.6225 571.943 20.8947 569.784 20.8947ZM580.5 40.2539V17.7532H584.217V36.8901H596.269V40.2531H580.5V40.2539ZM610.338 40.7665C602.373 40.7665 598.576 35.0642 598.576 29.1452C598.576 22.2823 603.487 17.3854 610.338 17.3854C618.22 17.3854 622.085 23.0117 622.085 29.1452C622.085 35.2106 618.285 40.7665 610.338 40.7665ZM610.403 20.6764C605.127 20.6764 602.225 24.3242 602.225 29.2211C602.297 33.1664 604.679 37.4732 610.338 37.4732C616.061 37.4732 618.439 33.5295 618.439 29.2211C618.439 25.0552 615.986 20.7476 610.403 20.6764ZM633.982 40.689C628.853 40.5434 624.538 37.3276 624.538 30.9718V17.8236H628.194V30.9718C628.194 35.0642 630.637 37.2588 633.981 37.4043C637.636 37.6195 640.312 35.285 640.312 30.9718V17.8236H643.955V30.9718C643.956 37.6195 639.487 40.9121 633.982 40.689ZM656.086 40.2539C653.336 40.2539 650.13 40.2539 647.381 40.2539V17.7532H656.086C663.903 17.7532 667.468 23.2332 667.536 28.7844C667.69 34.4812 664.044 40.2539 656.086 40.2539ZM656.086 21.1851H651.023V36.8197H656.086C661.657 36.8197 664.044 32.8009 663.968 28.7844C663.903 24.9847 661.513 21.1851 656.086 21.1851ZM694.327 40.3259H691.048L687.998 32.361L685.543 24.8376L683.012 32.4378L680.04 40.3267H676.848L668.504 17.8244H672.599L678.411 35.1394L684.357 17.8244H686.733L692.765 35.1394L698.491 17.8244H702.585L694.327 40.3259ZM722.444 40.3259L720.218 35.5761H707.792L705.633 40.3259H701.769L712.029 17.8236H716.048L726.316 40.3259H722.444ZM714.032 21.5521L709.211 32.2922H718.876L714.032 21.5521ZM736.434 31.0494V40.2539H732.79V31.0494L723.94 17.9004V17.7532H728.321L734.572 27.6864L741.111 17.7532H745.515V17.9004L736.434 31.0494ZM756.523 20.3093C753.462 20.3093 751.24 21.5521 751.24 23.7419C751.24 25.9356 753.772 26.5219 756.809 26.9562C761.498 27.6175 766.046 28.854 766.046 33.8958C766.046 38.9391 761.354 40.8346 756.523 40.8346C752.132 40.8346 748.784 39.5221 746.702 35.7232L749.455 33.895C751.086 36.5966 753.916 37.6187 756.588 37.6187C759.34 37.6187 762.401 36.7445 762.401 33.895C762.401 31.4845 759.715 30.6103 756.523 30.1704C751.987 29.5874 747.674 28.415 747.674 23.5956C747.674 18.9201 752.351 17.1686 756.523 17.1686C759.791 17.1686 763.139 17.9684 765.077 20.9675L762.182 22.795C761.058 21.261 758.901 20.3093 756.523 20.3093ZM512.796 46.1706C499.813 46.1706 489.289 35.8371 489.289 23.0885C489.289 10.3382 499.813 0 512.796 0C525.781 0 536.31 10.3382 536.31 23.0885C536.31 35.8371 525.781 46.1706 512.796 46.1706ZM530.057 57.9336C518.757 57.9336 509.599 48.9426 509.599 37.8418C509.599 26.7457 518.757 17.7532 530.057 17.7532C541.355 17.7532 550.514 26.7457 550.514 37.8418C550.514 48.9426 541.356 57.9336 530.057 57.9336ZM495.834 57.9336C484.54 57.9336 475.376 48.9426 475.376 37.8418C475.376 26.7457 484.54 17.7532 495.834 17.7532C507.133 17.7532 516.297 26.7457 516.297 37.8418C516.296 48.9426 507.133 57.9336 495.834 57.9336ZM495.834 58V42.003H529.986V58H495.834ZM462.431 45.7323H442.566C441.674 45.7323 441.008 45.0725 441.008 44.1968V41.9326C441.008 41.0577 441.674 40.3987 442.566 40.3987H462.358C463.249 40.3987 463.922 41.0577 463.922 41.9326V44.1968C463.994 45.0029 463.249 45.7323 462.431 45.7323ZM492.415 45.7323H472.623C471.732 45.7323 471.06 45.0725 471.06 44.1968V41.9326C471.06 41.0577 471.732 40.3987 472.623 40.3987H492.416C493.308 40.3987 493.979 41.0577 493.979 41.9326V44.1968C493.978 45.0029 493.307 45.7323 492.415 45.7323ZM513.616 58H458.715C457.224 58 455.964 56.7675 455.964 55.2984C455.964 53.838 457.224 52.5952 458.715 52.5952H513.616C515.103 52.5952 516.368 53.838 516.368 55.2984C516.368 56.7683 515.103 58 513.616 58ZM496.653 33.4583H441.752C440.261 33.4583 439 32.2162 439 30.7574C439 29.2923 440.26 28.0542 441.752 28.0542H496.653C498.144 28.0542 499.405 29.2923 499.405 30.7574C499.405 32.2155 498.144 33.4583 496.653 33.4583ZM511.388 21.1851H456.481C454.994 21.1851 453.728 19.9422 453.728 18.4826C453.728 17.023 454.994 15.7802 456.481 15.7802H511.388C512.874 15.7802 514.14 17.023 514.14 18.4826C514.14 19.9422 512.944 21.1851 511.388 21.1851ZM516.666 8.91103H461.764C460.273 8.91103 459.012 7.67453 459.012 6.20861C459.012 4.74981 460.273 3.50619 461.764 3.50619H516.666C518.157 3.50619 519.418 4.74901 519.418 6.20861C519.418 7.67453 518.157 8.91103 516.666 8.91103Z" fill="#081B4B"/>
</g>
<defs>
<clipPath id="clip0_4_132">
<rect width="767" height="58" fill="white"/>
</clipPath>
</defs>
</svg>